<svg xmlns="http://www.w3.org/2000/svg" viewBox="0 0 64 64" fill="none">
  <ellipse cx="32" cy="54" rx="20" ry="6" fill="#8B6340"/>
  <ellipse cx="32" cy="53" rx="18" ry="5" fill="#A0744E"/>
  <path d="M32 52 L32 30" stroke="#3C6658" stroke-width="2.5" stroke-linecap="round"/>
  <path d="M32 38 C26 34 22 36 25 39 C27 41 31 40 32 38Z" fill="#4A7C59"/>
  <path d="M32 38 C38 34 42 36 39 39 C37 41 33 40 32 38Z" fill="#3C6658"/>
  <path d="M32 32 C27 28 24 30 27 33 C29 34 31 33 32 32Z" fill="#4A7C59"/>
  <path d="M32 32 C37 28 40 30 37 33 C35 34 33 33 32 32Z" fill="#3C6658"/>
</svg>
